GIL08_free1_ik
nRows=3
nColumns=375

# SIMM Motion File Header:
name GIL08_free1_ik
datacolumns 375
datarows 3
otherdata 1
range 0.40833000 0.42500000
endheader
time	pelvis_tx	pelvis_ty	pelvis_tz	pelvis_tilt	pelvis_list	pelvis_rotation	hip_flexion_r	hip_adduction_r	hip_rotation_r	knee_angle_r	ankle_angle_r	hip_flexion_l	hip_adduction_l	hip_rotation_l	knee_angle_l	ankle_angle_l	lumbar_extension	lumbar_bending	lumbar_rotation	subtalar_angle_r	mtp_angle_r	subtalar_angle_l	mtp_angle_l	asis_r_px	asis_r_py	asis_r_pz	asis_l_px	asis_l_py	asis_l_pz	midasis_px	midasis_py	midasis_pz	psis_r_px	psis_r_py	psis_r_pz	psis_l_px	psis_l_py	psis_l_pz	hip_r_px	hip_r_py	hip_r_pz	hip_l_px	hip_l_py	hip_l_pz	midhip_px	midhip_py	midhip_pz	epicondLat_r_px	epicondLat_r_py	epicondLat_r_pz	epicondMed_r_px	epicondMed_r_py	epicondMed_r_pz	thighwand_r_px	thighwand_r_py	thighwand_r_pz	upperleg1_r_px	upperleg1_r_py	upperleg1_r_pz	upperleg2_r_px	upperleg2_r_py	upperleg2_r_pz	malleolusLat_r_px	malleolusLat_r_py	malleolusLat_r_pz	malleolusMedv_r_px	malleolusMedv_r_py	malleolusMedv_r_pz	shankwand_r_px	shankwand_r_py	shankwand_r_pz	lowerleg1_r_px	lowerleg1_r_py	lowerleg1_r_pz	knee_r_px	knee_r_py	knee_r_pz	ankle_r_px	ankle_r_py	ankle_r_pz	toe_r_px	toe_r_py	toe_r_pz	epicondLat_l_px	epicondLat_l_py	epicondLat_l_pz	epicondMed_l_px	epicondMed_l_py	epicondMed_l_pz	thighwand_l_px	thighwand_l_py	thighwand_l_pz	upperleg1_l_px	upperleg1_l_py	upperleg1_l_pz	upperleg2_l_px	upperleg2_l_py	upperleg2_l_pz	malleolusLat_l_px	malleolusLat_l_py	malleolusLat_l_pz	malleolusMedv_l_px	malleolusMedv_l_py	malleolusMedv_l_pz	shankwand_l_px	shankwand_l_py	shankwand_l_pz	lowerleg1_l_px	lowerleg1_l_py	lowerleg1_l_pz	knee_l_px	knee_l_py	knee_l_pz	ankle_l_px	ankle_l_py	ankle_l_pz	toe_l_px	toe_l_py	toe_l_pz	subclavicle_r_px	subclavicle_r_py	subclavicle_r_pz	subclavicle_l_px	subclavicle_l_py	subclavicle_l_pz	neck_px	neck_py	neck_pz	sternalnotch_px	sternalnotch_py	sternalnotch_pz	xyphoidprocess_px	xyphoidprocess_py	xyphoidprocess_pz	midhip_tx	midhip_ty	midhip_tz	hip_r_tx	hip_r_ty	hip_r_tz	hip_l_tx	hip_l_ty	hip_l_tz	knee_r_tx	knee_r_ty	knee_r_tz	knee_l_tx	knee_l_ty	knee_l_tz	ankle_r_tx	ankle_r_ty	ankle_r_tz	ankle_l_tx	ankle_l_ty	ankle_l_tz	midasis_tx	midasis_ty	midasis_tz	asis_r_tx	asis_r_ty	asis_r_tz	asis_l_tx	asis_l_ty	asis_l_tz	psis_r_tx	psis_r_ty	psis_r_tz	psis_l_tx	psis_l_ty	psis_l_tz	epicondLat_r_tx	epicondLat_r_ty	epicondLat_r_tz	epicondLat_l_tx	epicondLat_l_ty	epicondLat_l_tz	epicondMed_r_tx	epicondMed_r_ty	epicondMed_r_tz	epicondMed_l_tx	epicondMed_l_ty	epicondMed_l_tz	malleolusLat_r_tx	malleolusLat_r_ty	malleolusLat_r_tz	malleolusLat_l_tx	malleolusLat_l_ty	malleolusLat_l_tz	malleolusMedv_r_tx	malleolusMedv_r_ty	malleolusMedv_r_tz	malleolusMedv_l_tx	malleolusMedv_l_ty	malleolusMedv_l_tz	neck_tx	neck_ty	neck_tz	subclavicle_r_tx	subclavicle_r_ty	subclavicle_r_tz	subclavicle_l_tx	subclavicle_l_ty	subclavicle_l_tz	sternalnotch_tx	sternalnotch_ty	sternalnotch_tz	xyphoidprocess_tx	xyphoidprocess_ty	xyphoidprocess_tz	thighwand_r_tx	thighwand_r_ty	thighwand_r_tz	thighwand_l_tx	thighwand_l_ty	thighwand_l_tz	upperleg1_r_tx	upperleg1_r_ty	upperleg1_r_tz	upperleg1_l_tx	upperleg1_l_ty	upperleg1_l_tz	upperleg2_r_tx	upperleg2_r_ty	upperleg2_r_tz	upperleg2_l_tx	upperleg2_l_ty	upperleg2_l_tz	shankwand_r_tx	shankwand_r_ty	shankwand_r_tz	shankwand_l_tx	shankwand_l_ty	shankwand_l_tz	lowerleg1_r_tx	lowerleg1_r_ty	lowerleg1_r_tz	lowerleg1_l_tx	lowerleg1_l_ty	lowerleg1_l_tz	toe_r_tx	toe_r_ty	toe_r_tz	toe_l_tx	toe_l_ty	toe_l_tz	ground_force_vx	ground_force_vy	ground_force_vz	ground_force_px	ground_force_py	ground_force_pz	ground_force_vx	ground_force_vy	ground_force_vz	ground_force_px	ground_force_py	ground_force_pz	ground_torque_x	ground_torque_y	ground_torque_z	ground_torque_x	ground_torque_y	ground_torque_z	ground_marker_px	ground_marker_py	ground_marker_pz	ground_marker_px	ground_marker_py	ground_marker_pz	ground_marker_px	ground_marker_py	ground_marker_pz	ground_marker_px	ground_marker_py	ground_marker_pz	ground_marker_px	ground_marker_py	ground_marker_pz	ground_marker_px	ground_marker_py	ground_marker_pz	ground_marker_px	ground_marker_py	ground_marker_pz	ground_marker_px	ground_marker_py	ground_marker_pz	ground_marker_px	ground_marker_py	ground_marker_pz	ground_marker_px	ground_marker_py	ground_marker_pz	ground_marker_px	ground_marker_py	ground_marker_pz	ground_marker_px	ground_marker_py	ground_marker_pz	ground_marker_px	ground_marker_py	ground_marker_pz	ground_marker_px	ground_marker_py	ground_marker_pz	ground_marker_px	ground_marker_py	ground_marker_pz	ground_marker_px	ground_marker_py	ground_marker_pz	ground_marker_px	ground_marker_py	ground_marker_pz	ground_marker_px	ground_marker_py	ground_marker_pz	ground_marker_px	ground_marker_py	ground_marker_pz	ground_marker_px	ground_marker_py	ground_marker_pz	ground_marker_px	ground_marker_py	ground_marker_pz	ground_marker_px	ground_marker_py	ground_marker_pz	ground_marker_px	ground_marker_py	ground_marker_pz	ground_marker_px	ground_marker_py	ground_marker_pz	ground_marker_px	ground_marker_py	ground_marker_pz	ground_marker_px	ground_marker_py	ground_marker_pz	ground_marker_px	ground_marker_py	ground_marker_pz	ground_marker_px	ground_marker_py	ground_marker_pz	ground_marker_px	ground_marker_py	ground_marker_pz	ground_marker_px	ground_marker_py	ground_marker_pz	ground_marker_px	ground_marker_py	ground_marker_pz	ground_marker_px	ground_marker_py	ground_marker_pz	ground_marker_px	ground_marker_py	ground_marker_pz	ground_marker_px	ground_marker_py	ground_marker_pz	ground_marker_px	ground_marker_py	ground_marker_pz	ground_marker_px	ground_marker_py	ground_marker_pz	ground_marker_px	ground_marker_py	ground_marker_pz
      0.40833000	      1.63029416	      0.96264464	     -0.25160136	      4.18468521	     -0.60863190	      0.36827435	     19.46390035	     -0.20374362	      5.73007506	    -36.81148514	      8.31889576	     -8.89060033	      0.71952673	     10.15940370	     -8.52856463	     11.65276878	     -9.25503485	     -0.12668281	      9.44718270	      0.00000000	      0.00000000	      0.00000000	      0.00000000	      1.67780319	      0.98679792	     -0.15274421	      1.66924507	      0.98771775	     -0.36552466	      1.64191124	      0.96349382	     -0.25167623	      1.47225592	      0.98291440	     -0.20733825	      1.46630939	      0.98386556	     -0.29530391	      1.57603238	      0.90427785	     -0.18117055	      1.57524937	      0.90274068	     -0.32010762	      1.57564087	      0.90350926	     -0.25063909	      1.80139242	      0.52757466	     -0.13225835	      1.75875628	      0.52899307	     -0.24503484	      1.79432124	      0.65495107	     -0.06316021	      1.77162293	      0.70914486	     -0.13647966	      1.80115683	      0.63270798	     -0.15756024	      1.64072422	      0.10386147	     -0.10186323	      1.63326671	      0.09971942	     -0.16987142	      1.68795569	      0.17146583	     -0.04463332	      1.68324259	      0.22832556	     -0.10925257	      1.74520129	      0.52242473	     -0.17659223	      1.65153957	      0.11747042	     -0.14546048	      1.76074822	      0.06807712	     -0.14980719	      1.58503973	      0.46551447	     -0.37557257	      1.55153652	      0.47718858	     -0.27333396	      1.72612016	      0.59629479	     -0.29934087	      1.66291671	      0.65920655	     -0.35056785	      1.64638596	      0.57400937	     -0.35034226	      1.43693211	      0.06444589	     -0.35255912	      1.43791692	      0.07260255	     -0.28319975	      1.56466311	      0.14469024	     -0.29474974	      1.51420036	      0.20941873	     -0.31572133	      1.53788572	      0.49074136	     -0.31076140	      1.44338823	      0.08478640	     -0.31146388	      1.56625747	      0.03705771	     -0.30874469	      1.61622392	      1.37112013	     -0.17479710	      1.59685286	      1.37506934	     -0.32918466	      1.50711057	      1.44574432	     -0.24830135	      1.59382931	      1.37451555	     -0.25435298	      1.62966309	      1.17340086	     -0.27070373	      1.57377300	      0.90143200	     -0.24958100	      1.56846000	      0.88828900	     -0.19750000	      1.56832900	      0.88710000	     -0.30406300	      1.74098400	      0.50488800	     -0.18155200	      1.53754100	      0.47578500	     -0.30496200	      1.64855000	      0.10220800	     -0.17709200	      1.43883000	      0.06981700	     -0.28043200	      1.64705500	      0.98457900	     -0.25195900	      1.64718300	      0.98573400	     -0.14838900	      1.64692700	      0.98342400	     -0.35552900	      1.44911400	      1.00915800	     -0.20793200	      1.44745100	      1.01230800	     -0.29343800	      1.74622500	      0.50970400	     -0.12247900	      1.54811000	      0.47512200	     -0.36351200	      1.74206000	      0.51326400	     -0.23655900	      1.51775800	      0.48148200	     -0.25746300	      1.63999600	      0.10458000	     -0.14014400	      1.44011000	      0.06712600	     -0.31982000	      1.64746500	      0.11026000	     -0.20929400	      1.44501100	      0.07815800	     -0.25081000	      1.50961500	      1.46662400	     -0.24820700	      1.61675500	      1.39409500	     -0.17510500	      1.60042300	      1.39780600	     -0.33061300	      1.59590800	      1.39722400	     -0.25548200	      1.63440700	      1.19650200	     -0.27109900	      1.73327800	      0.61452600	     -0.03733700	      1.69169900	      0.59381100	     -0.30231100	      1.73559600	      0.67947100	     -0.10761000	      1.62680700	      0.65766500	     -0.35120000	      1.76457100	      0.60351700	     -0.12877400	      1.60828000	      0.57194300	     -0.34579600	      1.66190000	      0.18097700	     -0.07221200	      1.56366400	      0.15844700	     -0.27031700	      1.66332800	      0.23855800	     -0.13480100	      1.51005000	      0.21830600	     -0.29274300	      1.76139600	      0.06913600	     -0.17769900	      1.56608200	      0.04128100	     -0.28007600	      0.00000000	      0.00000000	      0.00000000	      2.03042529	      0.00000000	     -0.17476608	      4.82565084	    525.23630437	     13.79938646	      1.53899927	      0.00000000	     -0.28263443	      0.00000000	      0.00000000	      0.00000000	      0.00000000	     -1.12433997	      0.00000000	      1.57377267	      0.90143204	     -0.24958101	      1.56846046	      0.88828880	     -0.19749960	      1.56832898	      0.88710004	     -0.30406284	      1.74098396	      0.50488800	     -0.18155219	      1.53754103	      0.47578499	     -0.30496207	      1.64855027	      0.10220761	     -0.17709227	      1.43882954	      0.06981717	     -0.28043228	      1.64705515	      0.98457897	     -0.25195903	      1.64718294	      0.98573434	     -0.14838926	      1.64692748	      0.98342359	     -0.35552880	      1.44911373	      1.00915813	     -0.20793165	      1.44745135	      1.01230800	     -0.29343799	      1.74622524	      0.50970358	     -0.12247942	      1.54811025	      0.47512186	     -0.36351207	      1.74206007	      0.51326364	     -0.23655868	      1.51775825	      0.48148152	     -0.25746304	      1.63999617	      0.10458039	     -0.14014369	      1.44011033	      0.06712586	     -0.31981966	      1.64746487	      0.11026036	     -0.20929383	      1.44501102	      0.07815789	     -0.25081035	      1.50961483	      1.46662438	     -0.24820724	      1.61675489	      1.39409471	     -0.17510495	      1.60042286	      1.39780605	     -0.33061299	      1.59590805	      1.39722395	     -0.25548169	      1.63440716	      1.19650197	     -0.27109939	      1.73327780	      0.61452579	     -0.03733686	      1.69169903	      0.59381121	     -0.30231142	      1.73559594	      0.67947078	     -0.10761009	      1.62680733	      0.65766507	     -0.35119975	      1.76457083	      0.60351735	     -0.12877385	      1.60827982	      0.57194299	     -0.34579578	      1.66189957	      0.18097737	     -0.07221220	      1.56366372	      0.15844652	     -0.27031663	      1.66332817	      0.23855759	     -0.13480102	      1.51005006	      0.21830641	     -0.29274347	      1.76139605	      0.06913595	     -0.17769881	      1.56608152	      0.04128123	     -0.28007552
      0.41667000	      1.63903355	      0.96127647	     -0.25189759	      4.22305474	     -0.75644566	      0.67081423	     19.80442887	     -0.14033615	      5.39623737	    -34.81171605	      8.14239625	     -9.57056863	      0.53968936	     10.48053325	     -8.40550501	     12.04401125	     -9.34586140	      0.11062551	      9.37223106	      0.00000000	      0.00000000	      0.00000000	      0.00000000	      1.68702889	      0.98575087	     -0.15335483	      1.67739031	      0.98603543	     -0.36609088	      1.65064958	      0.96213240	     -0.25203395	      1.48120960	      0.98158252	     -0.20689277	      1.47481607	      0.98226961	     -0.29482954	      1.58516582	      0.90308601	     -0.18101982	      1.58367856	      0.90113692	     -0.31994596	      1.58442219	      0.90211147	     -0.25048289	      1.81302063	      0.52785636	     -0.13233994	      1.77034553	      0.52904460	     -0.24510435	      1.80512755	      0.65515187	     -0.06318176	      1.78205219	      0.70922799	     -0.13647038	      1.81208426	      0.63299732	     -0.15759376	      1.66949866	      0.09980155	     -0.10329410	      1.66206582	      0.09560997	     -0.17130196	      1.71402783	      0.16908327	     -0.04590404	      1.70682678	      0.22594165	     -0.11029472	      1.75644226	      0.52259820	     -0.17663495	      1.67964518	      0.11400863	     -0.14686132	      1.79065020	      0.06884297	     -0.15166453	      1.58864642	      0.46380517	     -0.37522002	      1.55518066	      0.47589552	     -0.27301753	      1.73110504	      0.59303740	     -0.29891129	      1.66865424	      0.65662786	     -0.35022328	      1.65117471	      0.57162032	     -0.34997768	      1.43693174	      0.06419706	     -0.35201786	      1.43793175	      0.07239919	     -0.28266407	      1.56533349	      0.14333023	     -0.29416269	      1.51547505	      0.20849522	     -0.31522769	      1.54169590	      0.48959632	     -0.31046736	      1.44353667	      0.08451084	     -0.31093305	      1.56629594	      0.03649976	     -0.30821802	      1.62552995	      1.36954430	     -0.17471951	      1.60564032	      1.37367288	     -0.32903643	      1.51624246	      1.44435252	     -0.24777664	      1.60286954	      1.37304441	     -0.25419556	      1.63844832	      1.17191149	     -0.27087559	      1.58182700	      0.89939200	     -0.24985700	      1.57762500	      0.88734900	     -0.19725800	      1.57698600	      0.88595900	     -0.30381700	      1.75272300	      0.50490800	     -0.18208700	      1.54153100	      0.47511100	     -0.30489200	      1.67704000	      0.09816800	     -0.17748100	      1.43901200	      0.07002800	     -0.28037900	      1.65590800	      0.98357700	     -0.25227200	      1.65653000	      0.98492700	     -0.14868000	      1.65528700	      0.98222600	     -0.35586500	      1.45822700	      1.00804000	     -0.20746100	      1.45607700	      1.01121300	     -0.29294000	      1.75791100	      0.50962700	     -0.12300100	      1.55215900	      0.47434700	     -0.36343100	      1.75288900	      0.51302700	     -0.23697800	      1.52212000	      0.48124700	     -0.25704100	      1.66818600	      0.10023300	     -0.14058500	      1.44031600	      0.06731500	     -0.31976400	      1.67600600	      0.10620600	     -0.20976700	      1.44524700	      0.07834500	     -0.25074400	      1.51882200	      1.46562800	     -0.24771800	      1.62603300	      1.39282100	     -0.17490100	      1.60935600	      1.39687300	     -0.33036100	      1.60501000	      1.39614200	     -0.25522300	      1.64322100	      1.19540400	     -0.27133900	      1.74411500	      0.61436200	     -0.03779400	      1.69718200	      0.59182100	     -0.30202400	      1.74593800	      0.67927100	     -0.10806600	      1.63290500	      0.65630900	     -0.35092400	      1.77524400	      0.60340500	     -0.12928900	      1.61350000	      0.57070700	     -0.34546100	      1.68650200	      0.17759100	     -0.07265000	      1.56447000	      0.15745900	     -0.27015300	      1.68596200	      0.23509400	     -0.13531000	      1.51157800	      0.21775500	     -0.29268600	      1.79116600	      0.06944300	     -0.17801100	      1.56601900	      0.04120900	     -0.28001800	      0.00000000	      0.00000000	      0.00000000	      2.03194604	      0.00000000	     -0.17475754	      5.33710249	    529.43440360	     13.38670465	      1.54498840	      0.00000000	     -0.28230405	      0.00000000	      0.00000000	      0.00000000	      0.00000000	     -1.14077710	      0.00000000	      1.58182693	      0.89939153	     -0.24985665	      1.57762456	      0.88734877	     -0.19725779	      1.57698560	      0.88595921	     -0.30381677	      1.75272310	      0.50490785	     -0.18208662	      1.54153144	      0.47511113	     -0.30489224	      1.67704034	      0.09816809	     -0.17748097	      1.43901157	      0.07002842	     -0.28037906	      1.65590835	      0.98357654	     -0.25227249	      1.65652955	      0.98492742	     -0.14868018	      1.65528727	      0.98222566	     -0.35586482	      1.45822668	      1.00803995	     -0.20746097	      1.45607722	      1.01121330	     -0.29293969	      1.75791073	      0.50962687	     -0.12300135	      1.55215883	      0.47434729	     -0.36343050	      1.75288916	      0.51302683	     -0.23697831	      1.52212036	      0.48124716	     -0.25704134	      1.66818607	      0.10023341	     -0.14058469	      1.44031644	      0.06731486	     -0.31976414	      1.67600560	      0.10620551	     -0.20976685	      1.44524682	      0.07834518	     -0.25074404	      1.51882207	      1.46562827	     -0.24771762	      1.62603343	      1.39282143	     -0.17490149	      1.60935581	      1.39687252	     -0.33036095	      1.60500956	      1.39614189	     -0.25522271	      1.64322138	      1.19540441	     -0.27133909	      1.74411452	      0.61436164	     -0.03779369	      1.69718158	      0.59182143	     -0.30202359	      1.74593759	      0.67927104	     -0.10806616	      1.63290548	      0.65630937	     -0.35092416	      1.77524412	      0.60340476	     -0.12928919	      1.61350048	      0.57070744	     -0.34546104	      1.68650210	      0.17759058	     -0.07265018	      1.56447005	      0.15745918	     -0.27015337	      1.68596244	      0.23509416	     -0.13531019	      1.51157820	      0.21775520	     -0.29268643	      1.79116642	      0.06944273	     -0.17801137	      1.56601906	      0.04120869	     -0.28001755
      0.42500000	      1.64733598	      0.95946359	     -0.25225673	      4.27707324	     -0.88852791	      0.98985639	     20.12127028	     -0.13338337	      4.93655523	    -32.79076025	      7.92463023	    -10.23043785	      0.37826948	     10.76442155	     -8.31143617	     12.42625586	     -9.52057264	      0.35579130	      9.21051966	      0.00000000	      0.00000000	      0.00000000	      0.00000000	      1.69583951	      0.98424639	     -0.15404042	      1.68505622	      0.98394537	     -0.36672149	      1.65895036	      0.96032908	     -0.25245794	      1.48973884	      0.97975667	     -0.20645822	      1.48287168	      0.98019963	     -0.29436083	      1.59390103	      0.90141963	     -0.18093264	      1.59166801	      0.89909225	     -0.31984298	      1.59278452	      0.90025594	     -0.25038781	      1.82409380	      0.52763617	     -0.13212642	      1.78161470	      0.52863476	     -0.24496664	      1.81525200	      0.65482465	     -0.06288614	      1.79195862	      0.70880657	     -0.13617525	      1.82252179	      0.63278826	     -0.15730221	      1.69791470	      0.09592895	     -0.10488926	      1.69064849	      0.09171068	     -0.17291348	      1.73954010	      0.16676464	     -0.04721730	      1.72997100	      0.22353797	     -0.11137423	      1.76721096	      0.52226802	     -0.17650005	      1.70745362	      0.11072332	     -0.14839824	      1.82008173	      0.06980131	     -0.15344004	      1.59201626	      0.46170211	     -0.37487665	      1.55868006	      0.47420144	     -0.27268101	      1.73583195	      0.58946433	     -0.29863813	      1.67405631	      0.65368267	     -0.34998542	      1.65567986	      0.56886465	     -0.34969320	      1.43675685	      0.06355388	     -0.35133333	      1.43783494	      0.07180413	     -0.28198642	      1.56586534	      0.14158306	     -0.29355155	      1.51659042	      0.20717402	     -0.31466747	      1.54532527	      0.48803314	     -0.31014154	      1.44354606	      0.08384176	     -0.31026577	      1.56619363	      0.03553991	     -0.30766212	      1.63470894	      1.36739259	     -0.17449530	      1.61449900	      1.37175873	     -0.32876406	      1.52543078	      1.44253279	     -0.24722494	      1.61188665	      1.37104237	     -0.25391828	      1.64698655	      1.16985276	     -0.27092599	      1.58825700	      0.89543700	     -0.25014800	      1.58685900	      0.88629700	     -0.19710800	      1.58567700	      0.88474300	     -0.30366000	      1.76429600	      0.50466200	     -0.18257000	      1.54564500	      0.47441800	     -0.30481300	      1.70546500	      0.09456500	     -0.17783800	      1.43924500	      0.07026500	     -0.28034300	      1.66481500	      0.98247700	     -0.25267000	      1.66596400	      0.98398800	     -0.14907300	      1.66366600	      0.98096600	     -0.35626600	      1.46741500	      1.00684100	     -0.20696100	      1.46474300	      1.01002600	     -0.29241700	      1.76931400	      0.50924700	     -0.12345900	      1.55627000	      0.47354500	     -0.36335000	      1.76326200	      0.51254100	     -0.23742200	      1.52688700	      0.48067400	     -0.25652700	      1.69633800	      0.09630000	     -0.14099100	      1.44055200	      0.06753600	     -0.31972700	      1.70438300	      0.10249700	     -0.21008400	      1.44553600	      0.07855000	     -0.25069300	      1.52810400	      1.46452900	     -0.24716900	      1.63532300	      1.39143600	     -0.17463500	      1.61839000	      1.39576800	     -0.33007800	      1.61416900	      1.39492100	     -0.25492400	      1.65203900	      1.19415100	     -0.27143400	      1.75453500	      0.61387400	     -0.03819900	      1.70270200	      0.58978900	     -0.30190000	      1.75625100	      0.67881300	     -0.10853000	      1.63883100	      0.65482400	     -0.35070100	      1.78562000	      0.60294400	     -0.12976800	      1.61877900	      0.56940600	     -0.34516900	      1.71106800	      0.17442700	     -0.07305700	      1.56537300	      0.15649200	     -0.27005300	      1.70856400	      0.23177800	     -0.13576300	      1.51319000	      0.21724800	     -0.29265900	      1.82066300	      0.07014000	     -0.17830300	      1.56596400	      0.04112700	     -0.27996200	      0.00000000	      0.00000000	      0.00000000	      2.03354639	      0.00000000	     -0.17472928	      6.01857169	    533.74327752	     13.12063781	      1.55080005	      0.00000000	     -0.28200693	      0.00000000	      0.00000000	      0.00000000	      0.00000000	     -1.15773633	      0.00000000	      1.58825684	      0.89543712	     -0.25014776	      1.58685899	      0.88629740	     -0.19710808	      1.58567715	      0.88474309	     -0.30366012	      1.76429594	      0.50466180	     -0.18256970	      1.54564452	      0.47441778	     -0.30481258	      1.70546520	      0.09456540	     -0.17783755	      1.43924487	      0.07026457	     -0.28034258	      1.66481543	      0.98247683	     -0.25266969	      1.66596448	      0.98398805	     -0.14907299	      1.66366625	      0.98096561	     -0.35626641	      1.46741533	      1.00684130	     -0.20696129	      1.46474314	      1.01002562	     -0.29241714	      1.76931393	      0.50924665	     -0.12345923	      1.55627036	      0.47354549	     -0.36334959	      1.76326227	      0.51254058	     -0.23742238	      1.52688706	      0.48067406	     -0.25652745	      1.69633842	      0.09629988	     -0.14099067	      1.44055223	      0.06753583	     -0.31972653	      1.70438278	      0.10249729	     -0.21008444	      1.44553566	      0.07854971	     -0.25069311	      1.52810395	      1.46452928	     -0.24716899	      1.63532269	      1.39143550	     -0.17463471	      1.61839008	      1.39576840	     -0.33007795	      1.61416912	      1.39492106	     -0.25492448	      1.65203857	      1.19415057	     -0.27143350	      1.75453460	      0.61387432	     -0.03819935	      1.70270216	      0.58978862	     -0.30190042	      1.75625086	      0.67881340	     -0.10852972	      1.63883066	      0.65482360	     -0.35070109	      1.78561962	      0.60294366	     -0.12976839	      1.61877906	      0.56940615	     -0.34516940	      1.71106815	      0.17442705	     -0.07305723	      1.56537282	      0.15649171	     -0.27005342	      1.70856428	      0.23177846	     -0.13576272	      1.51319015	      0.21724811	     -0.29265901	      1.82066345	      0.07013961	     -0.17830311	      1.56596363	      0.04112719	     -0.27996245
